<svg xmlns="http://www.w3.org/2000/svg" viewBox="0 0 500 500"><g id="freepik--Clouds--inject-41"><g id="freepik--clouds--inject-41"><path d="M345.86,76.65l6,3.47a7.16,7.16,0,0,1-.05-.8V77.59c0-3.1,2.17-4.35,4.85-2.81a9.44,9.44,0,0,1,2.89,2.79c.44-3.9,3.49-5.34,7.2-3.2A16,16,0,0,1,374,86.94v2.6a6.71,6.71,0,0,1-.62,3l5,2.88a6,6,0,0,1,2.69,4.66c0,1.72-1.2,2.42-2.69,1.56L345.86,82.87a6,6,0,0,1-2.69-4.66C343.17,76.49,344.38,75.8,345.86,76.65Z" style="fill:#ebebeb"></path><path d="M385.54,60.71,388.85,62V54.69c0-5.78,4.61-7.17,9.62-4.28h0c5,2.9,9.07,9.93,9.07,15.71v1.06a4.81,4.81,0,0,1,4.2.65h0a14.41,14.41,0,0,1,6.53,11.3v.48l4.61,2.66a9.48,9.48,0,0,1,4.3,7.44c0,2.74-1.92,3.85-4.3,2.48L385.54,70.63a9.5,9.5,0,0,1-4.3-7.44C381.24,60.45,383.17,59.34,385.54,60.71Z" style="fill:#ebebeb"></path></g></g><g id="freepik--Plants--inject-41"><g id="freepik--plants--inject-41"><path d="M82.08,358s5-25.62-1.15-48.73-19.3-40.45-34.67-46.71-32.73,4.2-19,19.53,40.45,35,42.4,76.68Z" style="fill:#1E1E1E"></path><g style="opacity:0.15"><path d="M82.08,358s5-25.62-1.15-48.73-19.3-40.45-34.67-46.71-32.73,4.2-19,19.53,40.45,35,42.4,76.68Z"></path></g><path d="M79.49,350.14h.19a.88.88,0,0,0,.81-.95c-3.61-46.27-29.86-73.46-43.23-81.37a.88.88,0,0,0-.9,1.52c13.1,7.75,38.81,34.44,42.37,80A.88.88,0,0,0,79.49,350.14Z" style="fill:#fff"></path><path d="M20.11,329.57a11.51,11.51,0,0,0,3.16,6c2.17,2.24,4.89,3.9,6.94,6.25a4.75,4.75,0,0,1,1.14,2c.45,2-1.42,3.74-2.6,5.46a9.68,9.68,0,0,0,1.48,12.3c3.33,3,8.17,3.17,12.54,4a13.22,13.22,0,0,1,8.36,5.29c2.21,3.24,2.09,7.58,3.16,11.24a18.67,18.67,0,0,0,10.5,11.57,27.92,27.92,0,0,0,9.26,2.15,10.47,10.47,0,0,0,6.67-1.43c3.45-2.41,3.81-7.28,3.85-11.48L84.72,364c0-4.25,0-8.62-1-12.76-.71-2.71-2.32-4.9-3.21-7.44-1.44-4.12-1.38-9.61-5.51-12.12-5.86-3.56-13.62-1.6-20-4.15a46.53,46.53,0,0,1-6.08-3.41c-4.65-2.76-10-4.61-15.39-4.37a17.93,17.93,0,0,0-12,5.11A5.41,5.41,0,0,0,20.11,329.57Z" style="fill:#1E1E1E"></path><path d="M80.52,389h.06a.67.67,0,0,0,.68-.67c.56-42.48-39.49-59.88-49.44-61.91a.67.67,0,0,0-.27,1.32c9.73,2,48.9,19,48.36,60.58A.68.68,0,0,0,80.52,389Z" style="fill:#fff"></path><path d="M38.37,351.94a.56.56,0,0,0,.37-.08c.12-.07,12.92-7.14,28.86,0a.64.64,0,0,0,.52-1.16c-16.56-7.38-29.88,0-30,.09a.64.64,0,0,0-.24.87A.62.62,0,0,0,38.37,351.94Z" style="fill:#fff"></path></g></g><g id="freepik--shopping-cart--inject-41"><g id="freepik--shopping-cart--inject-41"><path d="M403.93,343.29A14,14,0,0,0,397,332.73c-1.89-1-3.53-.91-4.63-.07h0l-4.12,2.67,9.91,14.85,4.08-2.66v0C403.38,346.8,404.05,345.34,403.93,343.29Z" style="fill:#455a64"></path><path d="M392.74,335.52a13.94,13.94,0,0,1,6.92,10.56c.23,4-2.5,5.81-6.1,4a14,14,0,0,1-6.92-10.56C386.42,335.49,389.15,333.7,392.74,335.52Z" style="fill:#37474f"></path><path d="M391,341.68c-.09-1.57.82-2.34,2-1.73a5.09,5.09,0,0,1,2.36,4c.09,1.57-.82,2.34-2,1.73A5.12,5.12,0,0,1,391,341.68Z" style="fill:#263238"></path><path d="M399.75,328.39s.4,7.2-2.88,9.93c-.62.52-1.29.89-1.67,1.25-.84.78-.18,2.08.91,2.59,1.59.74,9.88-2,13.06-9Z" style="fill:#1E1E1E"></path><path d="M399.75,328.39s.4,7.2-2.88,9.93c-.62.52-1.29.89-1.67,1.25-.84.78-.18,2.08.91,2.59,1.59.74,9.88-2,13.06-9Z" style="opacity:0.6000000000000001"></path><path d="M396.59,330.45s.4,7.2-2.88,9.93c-.62.52-1.29.89-1.67,1.25-.84.78-.18,2.08.91,2.59,1.59.74,9.88-2,13.06-9Z" style="fill:#1E1E1E"></path><path d="M396.59,330.45s.4,7.2-2.88,9.93c-.62.52-1.29.89-1.67,1.25-.84.78-.18,2.08.91,2.59,1.59.74,9.88-2,13.06-9Z" style="opacity:0.4"></path><path d="M393.11,342.1a1.33,1.33,0,0,1,.67,1c0,.39-.24.56-.59.38a1.32,1.32,0,0,1-.66-1C392.51,342.09,392.77,341.92,393.11,342.1Z" style="fill:#263238"></path><path d="M448.76,313.39a14,14,0,0,0-6.92-10.56c-1.89-.95-3.53-.9-4.64-.07h0l-4.11,2.67L443,320.28l4.07-2.66h0C448.21,316.9,448.87,315.44,448.76,313.39Z" style="fill:#455a64"></path><path d="M437.57,305.62a14,14,0,0,1,6.92,10.56c.23,4-2.5,5.81-6.1,4a14,14,0,0,1-6.92-10.57C431.24,305.59,434,303.81,437.57,305.62Z" style="fill:#37474f"></path><path d="M435.78,311.79c-.09-1.58.82-2.35,2-1.74a5.13,5.13,0,0,1,2.36,4c.09,1.57-.82,2.35-2,1.73A5.09,5.09,0,0,1,435.78,311.79Z" style="fill:#263238"></path><path d="M444.06,299.55s.92,6.14-2.36,8.88c-.62.51-1.29.88-1.67,1.24-.84.78-.18,2.09.91,2.59,1.59.75,9.36-.92,12.54-8Z" style="fill:#1E1E1E"></path><path d="M444.06,299.55s.92,6.14-2.36,8.88c-.62.51-1.29.88-1.67,1.24-.84.78-.18,2.09.91,2.59,1.59.75,9.36-.92,12.54-8Z" style="opacity:0.6000000000000001"></path><path d="M441.42,300.56s.4,7.19-2.88,9.93c-.62.51-1.29.88-1.68,1.24-.83.78-.17,2.09.92,2.6,1.59.74,9.88-2,13.06-9Z" style="fill:#1E1E1E"></path><path d="M441.42,300.56s.4,7.19-2.88,9.93c-.62.51-1.29.88-1.68,1.24-.83.78-.17,2.09.92,2.6,1.59.74,9.88-2,13.06-9Z" style="opacity:0.4"></path><path d="M437.94,312.2a1.31,1.31,0,0,1,.66,1c0,.39-.24.56-.58.39a1.33,1.33,0,0,1-.66-1C437.33,312.2,437.6,312,437.94,312.2Z" style="fill:#263238"></path><path d="M359.61,321.2a14,14,0,0,0-6.92-10.57c-1.88-.95-3.52-.9-4.63-.06h0l-4.12,2.67,9.91,14.85,4.08-2.67h0C359.07,324.71,359.73,323.25,359.61,321.2Z" style="fill:#455a64"></path><path d="M348.42,313.43A13.91,13.91,0,0,1,355.34,324c.23,4-2.5,5.81-6.09,4a13.91,13.91,0,0,1-6.92-10.56C342.1,313.4,344.83,311.61,348.42,313.43Z" style="fill:#37474f"></path><path d="M346.63,319.59c-.09-1.57.83-2.34,2-1.73a5.1,5.1,0,0,1,2.37,4c.09,1.57-.83,2.34-2,1.73A5.12,5.12,0,0,1,346.63,319.59Z" style="fill:#263238"></path><path d="M355.43,306.3s.41,7.19-2.88,9.93c-.62.52-1.28.89-1.67,1.25-.83.78-.18,2.08.92,2.59,1.59.74,9.88-2,13.06-9Z" style="fill:#1E1E1E"></path><path d="M355.43,306.3s.41,7.19-2.88,9.93c-.62.52-1.28.89-1.67,1.25-.83.78-.18,2.08.92,2.59,1.59.74,9.88-2,13.06-9Z" style="opacity:0.6000000000000001"></path><path d="M352.27,308.36s.41,7.2-2.88,9.93c-.62.52-1.29.89-1.67,1.25-.83.78-.18,2.08.92,2.59,1.59.74,9.88-2,13.06-9Z" style="fill:#1E1E1E"></path><path d="M352.27,308.36s.41,7.2-2.88,9.93c-.62.52-1.29.89-1.67,1.25-.83.78-.18,2.08.92,2.59,1.59.74,9.88-2,13.06-9Z" style="opacity:0.4"></path><path d="M348.8,320a1.32,1.32,0,0,1,.66,1c0,.39-.24.56-.59.38a1.32,1.32,0,0,1-.66-1C348.19,320,348.45,319.83,348.8,320Z" style="fill:#263238"></path><path d="M406.23,290.66a13.94,13.94,0,0,0-6.92-10.56c-1.89-1-3.53-.9-4.63-.07h0l-4.12,2.67,9.91,14.85,4.08-2.66h0C405.69,294.17,406.35,292.71,406.23,290.66Z" style="fill:#455a64"></path><path d="M395,282.89A13.94,13.94,0,0,1,402,293.45c.23,4-2.5,5.81-6.1,4a14,14,0,0,1-6.92-10.57C388.72,282.87,391.45,281.08,395,282.89Z" style="fill:#37474f"></path><path d="M393.25,289.06c-.09-1.57.83-2.35,2-1.74a5.14,5.14,0,0,1,2.37,4c.08,1.57-.83,2.35-2.05,1.73A5.12,5.12,0,0,1,393.25,289.06Z" style="fill:#263238"></path><path d="M402.05,275.77s.4,7.19-2.88,9.93c-.62.51-1.29.88-1.67,1.24-.84.78-.18,2.09.91,2.6,1.6.74,9.89-2,13.06-9Z" style="fill:#1E1E1E"></path><path d="M402.05,275.77s.4,7.19-2.88,9.93c-.62.51-1.29.88-1.67,1.24-.84.78-.18,2.09.91,2.6,1.6.74,9.89-2,13.06-9Z" style="opacity:0.6000000000000001"></path><path d="M398.89,277.83s.4,7.19-2.88,9.93c-.62.51-1.29.88-1.67,1.24-.84.78-.18,2.09.91,2.6,1.59.74,9.88-2,13.06-9Z" style="fill:#1E1E1E"></path><path d="M398.89,277.83s.4,7.19-2.88,9.93c-.62.51-1.29.88-1.67,1.24-.84.78-.18,2.09.91,2.6,1.59.74,9.88-2,13.06-9Z" style="opacity:0.4"></path><path d="M395.41,289.47a1.33,1.33,0,0,1,.67,1c0,.39-.24.56-.59.39a1.36,1.36,0,0,1-.66-1C394.81,289.47,395.07,289.3,395.41,289.47Z" style="fill:#263238"></path><path d="M419.69,339.93a13.48,13.48,0,0,1-6.67-1.2L349.6,307c-3.57-1.8-7.58-6.47-7.83-10.89l-3.35-59.28,3.3-.18L345.06,296c.17,3,3.32,6.77,6,8.13l63.42,31.69a11.31,11.31,0,0,0,9.92-.57l35.16-20.35c.94-.62,1.48-1.36,1.44-2s-.62-1.25-1.62-1.76l-63.31-36.75c-3.56-1.79-7.56-6.47-7.81-10.9L385.87,223l3.29-.18,2.41,40.51c.17,3,3.31,6.78,6,8.13l63.3,36.75c2.12,1.07,3.34,2.67,3.45,4.52a5.7,5.7,0,0,1-2.93,4.93L426.23,338A13.55,13.55,0,0,1,419.69,339.93Z" style="fill:#1E1E1E"></path><g style="opacity:0.5"><path d="M419.69,339.93a13.48,13.48,0,0,1-6.67-1.2L349.6,307c-3.57-1.8-7.58-6.47-7.83-10.89l-3.35-59.28,3.3-.18L345.06,296c.17,3,3.32,6.77,6,8.13l63.42,31.69a11.31,11.31,0,0,0,9.92-.57l35.16-20.35c.94-.62,1.48-1.36,1.44-2s-.62-1.25-1.62-1.76l-63.31-36.75c-3.56-1.79-7.56-6.47-7.81-10.9L385.87,223l3.29-.18,2.41,40.51c.17,3,3.31,6.78,6,8.13l63.3,36.75c2.12,1.07,3.34,2.67,3.45,4.52a5.7,5.7,0,0,1-2.93,4.93L426.23,338A13.55,13.55,0,0,1,419.69,339.93Z"></path></g><path d="M328.68,177a11,11,0,0,1,4.21-11.69l35.83-23.64c3.57-2.34,7.48-.72,8.74,3.37l5.45,17.69-2.64,1.73L375,148a3,3,0,0,0-4.71-1.65l-34.79,23.07a7.21,7.21,0,0,0-2.76,7.54l4.6,15.67-3.17,2.08Z" style="fill:#1E1E1E"></path><g style="opacity:0.5"><path d="M328.68,177a11,11,0,0,1,4.21-11.69l35.83-23.64c3.57-2.34,7.48-.72,8.74,3.37l5.45,17.69-2.64,1.73L375,148a3,3,0,0,0-4.71-1.65l-34.79,23.07a7.21,7.21,0,0,0-2.76,7.54l4.6,15.67-3.17,2.08Z"></path></g><polygon points="334.13 194.67 382.91 162.71 388.05 227.99 339.26 259.95 334.13 194.67" style="fill:#1E1E1E"></polygon><path d="M382.91,162.71,388.05,228l84.61,42.69,14.39-55.43ZM413.38,226a4.42,4.42,0,0,1-5.53-2.87L395.09,190a4.16,4.16,0,1,1,7.71-3l12.76,33.1A4.43,4.43,0,0,1,413.38,226Zm24.1,11.34a4.44,4.44,0,0,1-5.54-2.87l-12.75-33.1a4.16,4.16,0,1,1,7.71-3l12.75,33.1A4.43,4.43,0,0,1,437.48,237.31Zm24.09,11.33a4.42,4.42,0,0,1-5.53-2.86l-12.75-33.1a4.16,4.16,0,1,1,7.71-3l12.75,33.1A4.41,4.41,0,0,1,461.57,248.64Z" style="fill:#1E1E1E"></path><path d="M382.91,162.71,388.05,228l84.61,42.69,14.39-55.43ZM413.38,226a4.42,4.42,0,0,1-5.53-2.87L395.09,190a4.16,4.16,0,1,1,7.71-3l12.76,33.1A4.43,4.43,0,0,1,413.38,226Zm24.1,11.34a4.44,4.44,0,0,1-5.54-2.87l-12.75-33.1a4.16,4.16,0,1,1,7.71-3l12.75,33.1A4.43,4.43,0,0,1,437.48,237.31Zm24.09,11.33a4.42,4.42,0,0,1-5.53-2.86l-12.75-33.1a4.16,4.16,0,1,1,7.71-3l12.75,33.1A4.41,4.41,0,0,1,461.57,248.64Z" style="fill:#fff;opacity:0.55"></path><polygon points="388.05 227.99 339.26 259.95 423.88 302.64 472.66 270.69 388.05 227.99" style="fill:#1E1E1E"></polygon><polygon points="388.05 227.99 339.26 259.95 423.88 302.64 472.66 270.69 388.05 227.99" style="opacity:0.1"></polygon><path d="M334.13,194.67,339.27,260l84.61,42.69,14.39-55.44Zm30.47,63.26a4.43,4.43,0,0,1-5.54-2.86L346.31,222a4.16,4.16,0,1,1,7.71-3l12.75,33.1A4.42,4.42,0,0,1,364.6,257.93Zm24.09,11.34a4.42,4.42,0,0,1-5.53-2.86l-12.75-33.1a4.16,4.16,0,1,1,7.71-3l12.75,33.1A4.41,4.41,0,0,1,388.69,269.27Zm24.1,11.34a4.42,4.42,0,0,1-5.53-2.87l-12.75-33.1a4.16,4.16,0,1,1,7.71-3L415,274.77A4.42,4.42,0,0,1,412.79,280.61Z" style="fill:#1E1E1E"></path><path d="M334.13,194.67,339.27,260l84.61,42.69,14.39-55.44Zm30.47,63.26a4.43,4.43,0,0,1-5.54-2.86L346.31,222a4.16,4.16,0,1,1,7.71-3l12.75,33.1A4.42,4.42,0,0,1,364.6,257.93Zm24.09,11.34a4.42,4.42,0,0,1-5.53-2.86l-12.75-33.1a4.16,4.16,0,1,1,7.71-3l12.75,33.1A4.41,4.41,0,0,1,388.69,269.27Zm24.1,11.34a4.42,4.42,0,0,1-5.53-2.87l-12.75-33.1a4.16,4.16,0,1,1,7.71-3L415,274.77A4.42,4.42,0,0,1,412.79,280.61Z" style="fill:#fff;opacity:0.65"></path><polygon points="438.27 247.2 487.05 215.26 472.66 270.69 423.88 302.64 438.27 247.2" style="fill:#1E1E1E"></polygon><polygon points="438.27 247.2 487.05 215.26 472.66 270.69 423.88 302.64 438.27 247.2" style="fill:#fff;opacity:0.2"></polygon></g></g><g id="freepik--Device--inject-41"><g id="freepik--Decvice--inject-41"><path d="M200.53,68.13v236.5c0,2.2-1.55,3.61-3.47,4.71L95.69,367.88V128.68Z" style="fill:#1E1E1E"></path><path d="M200.53,68.13v236.5c0,2.2-1.55,3.61-3.47,4.71L95.69,367.88V128.68Z" style="opacity:0.23"></path><g id="freepik--device--inject-41"><path d="M214,37.35,94.31,106.48a9,9,0,0,0-4,7V404.7c0,2.58,1.82,3.63,4,2.34L214,337.91a9,9,0,0,0,4-7V39.69C218.08,37.11,216.27,36.06,214,37.35Zm-1.79,274.28c0,2.21-1.55,3.62-3.47,4.72L99.16,379.65c-1.91,1.11-3.47.21-3.47-2v-249L212.25,61.35V311.63Z" style="fill:#1E1E1E"></path><path d="M214,37.35,94.31,106.48a9,9,0,0,0-4,7V404.7c0,2.58,1.82,3.63,4,2.34L214,337.91a9,9,0,0,0,4-7V39.69C218.08,37.11,216.27,36.06,214,37.35Zm-1.79,274.28c0,2.21-1.55,3.62-3.47,4.72L99.16,379.65c-1.91,1.11-3.47.21-3.47-2v-249L212.25,61.35V311.63Z" style="opacity:0.5"></path><path d="M212.26,61.36V311.63c0,2.21-1.55,3.61-3.47,4.72L99.16,379.65c-1.91,1.1-3.47.21-3.47-2v-9.76l101.37-58.54c1.92-1.1,3.47-2.51,3.47-4.71V68.14Z" style="fill:#1E1E1E"></path><path d="M99.16,379.65l109.63-63.3a8.25,8.25,0,0,0,2.67-2.25l-11.84-6.85a8.46,8.46,0,0,1-2.56,2.09L95.69,367.88v9.76C95.69,379.86,97.25,380.75,99.16,379.65Z" style="opacity:0.4"></path><path d="M199.62,307.25a8.46,8.46,0,0,1-2.56,2.09L96,367.7V369l101.37-58.54a7.25,7.25,0,0,0,3-2.8Z" style="opacity:0.15"></path><path d="M212.26,311.63V61.36l-11.73,6.78V304.63a4.18,4.18,0,0,1-.91,2.62h0l11.84,6.85A4.19,4.19,0,0,0,212.26,311.63Z" style="opacity:0.6000000000000001"></path><path d="M93.8,407.29a9.08,9.08,0,0,1-7.6-.25l-4.63-2.68a8.93,8.93,0,0,1-4.06-7V106.16a7.73,7.73,0,0,1,.71-3,9.7,9.7,0,0,1,.48-1h0l12.74,7.36h0a11.06,11.06,0,0,0-.7,1.48,7.42,7.42,0,0,0-.5,2.51V404.71C90.26,407.08,91.81,408.16,93.8,407.29Z" style="fill:#1E1E1E"></path><path d="M93.8,407.29a9.08,9.08,0,0,1-7.6-.25l-4.63-2.68a8.93,8.93,0,0,1-4.06-7V106.16a7.73,7.73,0,0,1,.71-3,9.7,9.7,0,0,1,.48-1h0l12.74,7.36h0a11.06,11.06,0,0,0-.7,1.48,7.42,7.42,0,0,0-.5,2.51V404.71C90.26,407.08,91.81,408.16,93.8,407.29Z" style="opacity:0.6000000000000001"></path><path d="M156.83,354h0c2.07,0,2.29,2.33,2.29,3.33a13,13,0,0,1-5.77,10,4.65,4.65,0,0,1-2.23.71c-2.08,0-2.3-2.32-2.3-3.32a13,13,0,0,1,5.77-10,4.65,4.65,0,0,1,2.24-.71m0-1.24a5.76,5.76,0,0,0-2.86.88,14.11,14.11,0,0,0-6.39,11.07c0,2.89,1.44,4.56,3.54,4.56a5.84,5.84,0,0,0,2.85-.87,14.14,14.14,0,0,0,6.39-11.07c0-2.9-1.44-4.57-3.53-4.57Z" style="fill:#37474f"></path><path d="M154.08,76.08c1.5-.86,2.72-.16,2.72,1.57a6,6,0,0,1-2.72,4.7c-1.5.87-2.71.17-2.71-1.57A6,6,0,0,1,154.08,76.08Z" style="fill:#37474f"></path><path d="M139.5,92.87l29.35-17c1.25-.72,2.26-.21,2.26,1.15a4.86,4.86,0,0,1-2.26,3.76l-29.35,17c-1.25.72-2.27.21-2.27-1.14A4.85,4.85,0,0,1,139.5,92.87Z" style="fill:#37474f"></path><path d="M218,39.05c-.29-2.11-2-2.87-4-1.7L94.3,106.48a8.26,8.26,0,0,0-2.85,3l-12.74-7.36a8.3,8.3,0,0,1,2.86-3L201.29,30a8.9,8.9,0,0,1,8.1,0L214,32.67A9.08,9.08,0,0,1,218,39.05Z" style="fill:#1E1E1E"></path><path d="M218,39.05c-.29-2.11-2-2.87-4-1.7L94.3,106.48a8.26,8.26,0,0,0-2.85,3l-12.74-7.36a8.3,8.3,0,0,1,2.86-3L201.29,30a8.9,8.9,0,0,1,8.1,0L214,32.67A9.08,9.08,0,0,1,218,39.05Z" style="opacity:0.30000000000000004"></path></g><path d="M114.2,284.19l-3.41-2a4.29,4.29,0,0,1-2-3.37V148.26a4.29,4.29,0,0,1,2-3.37L176.35,107a4.29,4.29,0,0,1,3.9,0l3.41,2a4.32,4.32,0,0,1,2,3.38V243a4.29,4.29,0,0,1-2,3.37L118.1,284.19A4.26,4.26,0,0,1,114.2,284.19Z" style="fill:#1E1E1E"></path><path d="M114.2,284.19l-3.41-2a4.29,4.29,0,0,1-2-3.37V148.26a4.29,4.29,0,0,1,2-3.37L176.35,107a4.29,4.29,0,0,1,3.9,0l3.41,2a4.32,4.32,0,0,1,2,3.38V243a4.29,4.29,0,0,1-2,3.37L118.1,284.19A4.26,4.26,0,0,1,114.2,284.19Z" style="fill:#fff;opacity:0.6000000000000001"></path><path d="M118.1,284.19l65.56-37.85a4.29,4.29,0,0,0,2-3.37V112.49c0-1.24-.87-1.75-2-1.13L118.1,149.11a4.29,4.29,0,0,0-1.95,3.37V283.07C116.15,284.31,117,284.82,118.1,284.19Z" style="fill:#1E1E1E"></path><path d="M118.1,284.19l65.56-37.85a4.29,4.29,0,0,0,2-3.37V112.49c0-1.24-.87-1.75-2-1.13L118.1,149.11a4.29,4.29,0,0,0-1.95,3.37V283.07C116.15,284.31,117,284.82,118.1,284.19Z" style="fill:#fff;opacity:0.8"></path><path d="M185.61,112.39v.1c0-1.24-.87-1.75-2-1.13L118.1,149.11a3.76,3.76,0,0,0-1.18,1.14L109.61,146a3.65,3.65,0,0,1,1.18-1.14L176.35,107a4.27,4.27,0,0,1,3.89,0l3.42,2A4.32,4.32,0,0,1,185.61,112.39Z" style="fill:#1E1E1E"></path><path d="M185.61,112.39v.1c0-1.24-.87-1.75-2-1.13L118.1,149.11a3.76,3.76,0,0,0-1.18,1.14L109.61,146a3.65,3.65,0,0,1,1.18-1.14L176.35,107a4.27,4.27,0,0,1,3.89,0l3.42,2A4.32,4.32,0,0,1,185.61,112.39Z" style="fill:#fff;opacity:0.9500000000000001"></path><path d="M152.71,253.13c-12.13,7-23,6.19-23,6.19,0-21.21,8.2-43.38,9.18-47.71s2.87-11,0-14.14-4.6-11.48-4.6-11.48,4.6-5.53,4.6-9.72V163.6l4.59-2.65v4c0,6.76,4.11,9.87,9.18,6.94h0c5.07-2.93,9.18-10.78,9.18-17.54v-4l4.59-2.65v12.67c0,4.19,4.59,4.42,4.59,4.42s-1.71,10.27-4.59,16.79-1,10.93,0,14.13,9.18,15.91,9.18,37.11c0,0-10.82,13.32-22.95,20.32" style="fill:#37474f"></path><g id="freepik--toldo--inject-41"><polygon points="95.69 128.69 135.88 151.9 252.44 84.6 212.24 61.4 95.69 128.69" style="fill:#f5f5f5"></polygon><polygon points="95.69 128.69 135.88 151.9 148.83 144.42 108.64 121.21 95.69 128.69" style="fill:#1E1E1E"></polygon><polygon points="121.6 113.74 161.78 136.94 174.73 129.47 134.55 106.26 121.6 113.74" style="fill:#1E1E1E"></polygon><polygon points="147.5 98.78 187.69 121.99 200.64 114.51 160.45 91.3 147.5 98.78" style="fill:#1E1E1E"></polygon><polygon points="173.4 83.83 213.59 107.03 226.54 99.55 186.35 76.35 173.4 83.83" style="fill:#1E1E1E"></polygon><polygon points="199.31 68.87 239.49 92.08 252.44 84.6 212.26 61.39 199.31 68.87" style="fill:#1E1E1E"></polygon><path d="M148.83,144.42c0,4.77,2.9,7,6.48,4.9s6.48-7.61,6.48-12.38Z" style="fill:#e6e6e6"></path><path d="M174.74,129.47c0,4.77,2.9,7,6.48,4.9s6.48-7.61,6.48-12.38Z" style="fill:#e6e6e6"></path><path d="M200.65,114.52c0,4.76,2.9,7,6.48,4.89s6.48-7.6,6.48-12.37Z" style="fill:#e6e6e6"></path><path d="M226.56,99.56c0,4.77,2.9,7,6.48,4.9s6.48-7.61,6.48-12.38Z" style="fill:#e6e6e6"></path><path d="M135.88,151.9c0,4.77,2.9,7,6.48,4.9s6.47-7.61,6.47-12.38Z" style="fill:#1E1E1E"></path><path d="M161.79,137c0,4.77,2.9,7,6.48,4.89s6.47-7.6,6.47-12.37Z" style="fill:#1E1E1E"></path><path d="M187.7,122c0,4.77,2.9,7,6.47,4.9s6.48-7.61,6.48-12.38Z" style="fill:#1E1E1E"></path><path d="M213.61,107c0,4.77,2.9,7,6.47,4.9s6.48-7.61,6.48-12.38Z" style="fill:#1E1E1E"></path><path d="M239.52,92.08c0,4.77,2.9,7,6.47,4.9s6.48-7.6,6.48-12.37Z" style="fill:#1E1E1E"></path><g style="opacity:0.2"><path d="M135.88,151.9c0,4.77,2.9,7,6.48,4.9s6.47-7.61,6.47-12.38Z"></path><path d="M161.79,137c0,4.77,2.9,7,6.48,4.89s6.47-7.6,6.47-12.37Z"></path><path d="M187.7,122c0,4.77,2.9,7,6.47,4.9s6.48-7.61,6.48-12.38Z"></path><path d="M213.61,107c0,4.77,2.9,7,6.47,4.9s6.48-7.61,6.48-12.38Z"></path><path d="M239.52,92.08c0,4.77,2.9,7,6.47,4.9s6.48-7.6,6.48-12.37Z"></path></g></g><path d="M107.73,302.91a7.76,7.76,0,0,1,3.62-6l33.46-19.31c2-1.16,3.61-.34,3.61,1.82a7.78,7.78,0,0,1-3.61,6l-33.46,19.32C109.35,305.89,107.73,305.07,107.73,302.91Z" style="fill:#1E1E1E"></path><path d="M107.73,302.91a7.76,7.76,0,0,1,3.62-6l33.46-19.31c2-1.16,3.61-.34,3.61,1.82a7.78,7.78,0,0,1-3.61,6l-33.46,19.32C109.35,305.89,107.73,305.07,107.73,302.91Z" style="fill:#fff;opacity:0.8"></path><path d="M112.83,313a2.39,2.39,0,0,1,1-.06,1.79,1.79,0,0,1,.76.3,1.62,1.62,0,0,1,.49.58,1.74,1.74,0,0,1,.19.75.56.56,0,0,1-.08.3.44.44,0,0,1-.17.2l-1.58.92a.6.6,0,0,1-.27.09.44.44,0,0,1-.21-.07l-.12-.1a.5.5,0,0,0-.22-.1.73.73,0,0,0-.36,0,1.57,1.57,0,0,0-.53.22,2.57,2.57,0,0,0-.44.29,3.16,3.16,0,0,0-.38.34,1.77,1.77,0,0,0-.26.41,1,1,0,0,0-.1.46.39.39,0,0,0,.11.33.53.53,0,0,0,.39.08,3.12,3.12,0,0,0,.71-.15l1.11-.34a4.27,4.27,0,0,1,1.16-.21,1.44,1.44,0,0,1,.83.2,1.35,1.35,0,0,1,.49.68,3.76,3.76,0,0,1,.16,1.22,4.84,4.84,0,0,1-.19,1.35,6.71,6.71,0,0,1-.54,1.31,7,7,0,0,1-.85,1.21,8.93,8.93,0,0,1-1.08,1.05v1.14a.73.73,0,0,1-.1.36.59.59,0,0,1-.23.26l-1.58.91a.21.21,0,0,1-.23,0,.32.32,0,0,1-.09-.25v-1.19a2.8,2.8,0,0,1-1,.09,1.67,1.67,0,0,1-.79-.29,1.46,1.46,0,0,1-.51-.61,2.07,2.07,0,0,1-.2-.88.67.67,0,0,1,.08-.29.48.48,0,0,1,.18-.21l1.58-.91a.66.66,0,0,1,.26-.1.33.33,0,0,1,.19.06,1.2,1.2,0,0,1,.15.13.59.59,0,0,0,.26.14.88.88,0,0,0,.41,0,1.72,1.72,0,0,0,.61-.24,4.74,4.74,0,0,0,1.06-.8,1.27,1.27,0,0,0,.43-.91c0-.16-.05-.27-.15-.31a.86.86,0,0,0-.47,0,5.84,5.84,0,0,0-.81.2c-.32.1-.71.22-1.15.34a1.89,1.89,0,0,1-1.81-.13,2.4,2.4,0,0,1-.58-1.88,5,5,0,0,1,.16-1.18,6.69,6.69,0,0,1,.45-1.22,7.31,7.31,0,0,1,.73-1.17,7.43,7.43,0,0,1,1-1.06v-1.19a.8.8,0,0,1,.09-.36.66.66,0,0,1,.23-.26l1.58-.92a.19.19,0,0,1,.23,0,.28.28,0,0,1,.1.25Z" style="fill:#37474f"></path><path d="M116.11,314.68a.33.33,0,0,1-.06-.29,1,1,0,0,1,.13-.36l2.6-4.15c.06-.1.14-.23.23-.36a1,1,0,0,1,.32-.32l1.47-.85a.19.19,0,0,1,.23,0,.28.28,0,0,1,.1.25V319a.7.7,0,0,1-.1.36.59.59,0,0,1-.23.26l-1.58.91a.21.21,0,0,1-.23,0,.32.32,0,0,1-.09-.25v-7l-1.44,2.27a.48.48,0,0,1-.24.23.18.18,0,0,1-.22,0Z" style="fill:#37474f"></path><path d="M126.07,305.15a3.58,3.58,0,0,1,1.56-.55,1.62,1.62,0,0,1,1.08.33,2.09,2.09,0,0,1,.64,1,5.83,5.83,0,0,1,.24,1.52c0,.46,0,.93,0,1.44s0,1,0,1.43a9.47,9.47,0,0,1-.24,1.8,7.72,7.72,0,0,1-.64,1.76,7.9,7.9,0,0,1-1.08,1.58,6.45,6.45,0,0,1-1.56,1.25,3.39,3.39,0,0,1-1.55.54,1.53,1.53,0,0,1-1.08-.32,2,2,0,0,1-.64-1,5.68,5.68,0,0,1-.25-1.52c0-.43,0-.89,0-1.4s0-1,0-1.46a9.6,9.6,0,0,1,.25-1.81,7.43,7.43,0,0,1,.64-1.76,7.09,7.09,0,0,1,1.08-1.57A6.17,6.17,0,0,1,126.07,305.15Zm1.29,6.39q.06-1.4,0-2.7a3.5,3.5,0,0,0-.09-.69.94.94,0,0,0-.21-.46.47.47,0,0,0-.38-.17,1.24,1.24,0,0,0-.61.2,2.46,2.46,0,0,0-.6.49,2.69,2.69,0,0,0-.39.62,3.25,3.25,0,0,0-.21.71,5.16,5.16,0,0,0-.09.79q-.06,1.38,0,2.7a4.37,4.37,0,0,0,.08.7.94.94,0,0,0,.22.46.51.51,0,0,0,.39.17,1.35,1.35,0,0,0,.6-.2,2.37,2.37,0,0,0,1-1.12,2.78,2.78,0,0,0,.21-.71A4,4,0,0,0,127.36,311.54Z" style="fill:#37474f"></path><path d="M133,312.16a.7.7,0,0,1-.1.36.54.54,0,0,1-.23.26l-1.58.92a.19.19,0,0,1-.23,0,.3.3,0,0,1-.09-.25v-2.1a.87.87,0,0,1,.09-.37.66.66,0,0,1,.23-.26l1.58-.91a.19.19,0,0,1,.23,0,.28.28,0,0,1,.1.25Z" style="fill:#37474f"></path><path d="M136.22,307.37a1.57,1.57,0,0,0,.18.19.72.72,0,0,0,.25.16,1,1,0,0,0,.35,0,1.25,1.25,0,0,0,.48-.18,2.74,2.74,0,0,0,.49-.37,3.42,3.42,0,0,0,.41-.5,2.73,2.73,0,0,0,.28-.6,2.09,2.09,0,0,0,.1-.67.73.73,0,0,0-.32-.71,1,1,0,0,0-.87.16,1.54,1.54,0,0,0-.32.25,3.84,3.84,0,0,0-.28.3l-.23.27a1.23,1.23,0,0,1-.19.17L134.67,307a.2.2,0,0,1-.24,0,.26.26,0,0,1-.08-.25l.36-5.95a1,1,0,0,1,.1-.37.61.61,0,0,1,.22-.25l5.17-3a.18.18,0,0,1,.23,0,.3.3,0,0,1,.09.25v1.71a.83.83,0,0,1-.09.36.66.66,0,0,1-.23.26l-3.51,2-.09,1.49a4.36,4.36,0,0,1,.5-.56,3.43,3.43,0,0,1,.62-.46,3.56,3.56,0,0,1,1.3-.49,1.63,1.63,0,0,1,1,.14,1.56,1.56,0,0,1,.69.79,3.85,3.85,0,0,1,.24,1.48,6.39,6.39,0,0,1-.27,1.86,7.06,7.06,0,0,1-.75,1.68,7.27,7.27,0,0,1-1.11,1.41,6.81,6.81,0,0,1-1.38,1.05,4,4,0,0,1-1.46.56,1.82,1.82,0,0,1-1.09-.12,1.47,1.47,0,0,1-.69-.7,2.48,2.48,0,0,1-.25-1.13.69.69,0,0,1,.07-.3.66.66,0,0,1,.19-.21l1.53-.88a.4.4,0,0,1,.3-.08A.42.42,0,0,1,136.22,307.37Z" style="fill:#37474f"></path><path d="M141.8,300.07a5.92,5.92,0,0,1,.3-1.85,7.66,7.66,0,0,1,.79-1.72,8,8,0,0,1,1.13-1.44,6.36,6.36,0,0,1,1.31-1,3.89,3.89,0,0,1,1.32-.49,1.91,1.91,0,0,1,1.13.14,1.66,1.66,0,0,1,.79.8,3.3,3.3,0,0,1,.3,1.51,5.4,5.4,0,0,1-.08.91,8.26,8.26,0,0,1-.2.86c-.09.27-.18.55-.29.82s-.21.53-.31.78l-2.29,5.56-.14.27a.47.47,0,0,1-.24.26l-1.92,1.11c-.07,0-.13,0-.17,0a.33.33,0,0,1-.07-.21.52.52,0,0,1,0-.14s0-.08,0-.11l1.55-3.78a3.18,3.18,0,0,1-1.13.22,1.7,1.7,0,0,1-.95-.27,1.84,1.84,0,0,1-.65-.81A3.43,3.43,0,0,1,141.8,300.07Zm4.84-2.79a1.11,1.11,0,0,0-.11-.52.63.63,0,0,0-.29-.29.81.81,0,0,0-.42-.05,1.34,1.34,0,0,0-.49.18,2.42,2.42,0,0,0-.48.39,3.06,3.06,0,0,0-.42.53,2.84,2.84,0,0,0-.29.61,2.16,2.16,0,0,0-.11.65,1.16,1.16,0,0,0,.11.53.6.6,0,0,0,.29.28.72.72,0,0,0,.42.05,1.24,1.24,0,0,0,.48-.18,1.91,1.91,0,0,0,.49-.38,3.06,3.06,0,0,0,.42-.53,2.91,2.91,0,0,0,.29-.62A2.16,2.16,0,0,0,146.64,297.28Z" style="fill:#37474f"></path><path d="M155.77,294.7c0,1.08.81,1.49,1.81.91l3.17-1.83a3.86,3.86,0,0,0,1.81-3c0-1.08-.81-1.49-1.81-.91l-3.17,1.82A3.88,3.88,0,0,0,155.77,294.7Z" style="fill:#37474f"></path><path d="M166,288.82c0,1.08.81,1.49,1.8.92l3.17-1.83a3.88,3.88,0,0,0,1.81-3c0-1.08-.81-1.49-1.81-.92l-3.17,1.83A3.89,3.89,0,0,0,166,288.82Z" style="fill:#37474f"></path><path d="M176.12,283c0,1.08.81,1.49,1.81.91l3.16-1.82a3.88,3.88,0,0,0,1.81-3c0-1.08-.81-1.49-1.81-.91L177.93,280A3.88,3.88,0,0,0,176.12,283Z" style="fill:#37474f"></path><path d="M186.29,277.08c0,1.08.81,1.49,1.81.91l3.17-1.83a3.88,3.88,0,0,0,1.8-3c0-1.08-.81-1.49-1.8-.91l-3.17,1.83A3.86,3.86,0,0,0,186.29,277.08Z" style="fill:#37474f"></path><g id="freepik--add-to-bag-box--inject-41"><path d="M170.46,300.72a3.89,3.89,0,0,0-3.5.06l-60.81,35.11a4,4,0,0,0-1.81,3.13v11.49a3.39,3.39,0,0,0,5.2,3l60.81-35.11a4,4,0,0,0,1.81-3.13V303.78A3.86,3.86,0,0,0,170.46,300.72Z" style="fill:#1E1E1E"></path><path d="M170.46,300.72a3.89,3.89,0,0,0-3.5.06l-60.81,35.11a4,4,0,0,0-1.81,3.13v11.49a3.39,3.39,0,0,0,5.2,3l60.81-35.11a4,4,0,0,0,1.81-3.13V303.78A3.86,3.86,0,0,0,170.46,300.72Z" style="opacity:0.30000000000000004"></path><path d="M109.54,337.85l60.81-35.11c1-.58,1.81-.11,1.81,1v11.49a4,4,0,0,1-1.81,3.13l-60.81,35.11c-1,.58-1.81.11-1.81-1V341A4,4,0,0,1,109.54,337.85Z" style="fill:#1E1E1E"></path><path d="M172.14,303.49c-.13-.94-.88-1.28-1.79-.75l-60.81,35.11a3.63,3.63,0,0,0-1.28,1.35l-3.39-2a3.71,3.71,0,0,1,1.28-1.35L167,300.78a3.88,3.88,0,0,1,3.51-.07A3.93,3.93,0,0,1,172.14,303.49Z" style="fill:#1E1E1E"></path><path d="M172.14,303.49c-.13-.94-.88-1.28-1.79-.75l-60.81,35.11a3.63,3.63,0,0,0-1.28,1.35l-3.39-2a3.71,3.71,0,0,1,1.28-1.35L167,300.78a3.88,3.88,0,0,1,3.51-.07A3.93,3.93,0,0,1,172.14,303.49Z" style="fill:#fff;opacity:0.5"></path><path d="M114.61,338.52q.18-.11.27,0a.46.46,0,0,1,.13.19l2,6.43a.41.41,0,0,1,0,.16.49.49,0,0,1-.06.22.38.38,0,0,1-.14.16l-1.13.65c-.12.07-.21.09-.26.05a.24.24,0,0,1-.09-.14l-.26-.86-2.39,1.39-.25,1.14a.92.92,0,0,1-.1.25.6.6,0,0,1-.25.25l-1.14.66a.12.12,0,0,1-.14,0,.18.18,0,0,1-.06-.15,1.72,1.72,0,0,1,0-.21l2-8.69a2.54,2.54,0,0,1,.13-.34.78.78,0,0,1,.28-.29Zm-1.46,6.09,1.46-.85-.73-2.45Z" style="fill:#fff"></path><path d="M120.82,334.94a2.79,2.79,0,0,1,1.13-.41,1.32,1.32,0,0,1,.89.18,1.47,1.47,0,0,1,.58.72,3.46,3.46,0,0,1,.24,1.21c0,.17,0,.32,0,.46v.8c0,.13,0,.28,0,.45a6.89,6.89,0,0,1-.23,1.49,6,6,0,0,1-.58,1.38,5.74,5.74,0,0,1-.86,1.19,4.87,4.87,0,0,1-1.13.9l-2.43,1.4a.15.15,0,0,1-.17,0,.22.22,0,0,1-.07-.19v-7.75a.54.54,0,0,1,.07-.27.43.43,0,0,1,.17-.2Zm1.17,2.62c0-.9-.44-1.13-1.22-.68l-.92.53V342l1-.55a2.32,2.32,0,0,0,1.17-2.06c0-.18,0-.34,0-.48V338C122,337.87,122,337.72,122,337.56Z" style="fill:#fff"></path><path d="M127.77,330.92a2.88,2.88,0,0,1,1.14-.41,1.42,1.42,0,0,1,.88.18,1.48,1.48,0,0,1,.59.72,3.52,3.52,0,0,1,.24,1.22c0,.16,0,.31,0,.45v.8c0,.14,0,.29,0,.45a6.26,6.26,0,0,1-.24,1.49,6.77,6.77,0,0,1-.57,1.39,6,6,0,0,1-.87,1.19,4.77,4.77,0,0,1-1.12.89l-2.43,1.41c-.07,0-.12,0-.17,0a.22.22,0,0,1-.07-.19v-7.75a.54.54,0,0,1,.07-.27.4.4,0,0,1,.17-.19Zm1.18,2.62c0-.9-.44-1.13-1.22-.68l-.92.53V338l1-.55a2.29,2.29,0,0,0,1.18-2.06c0-.17,0-.33,0-.48V334C129,333.86,129,333.7,129,333.54Z" style="fill:#fff"></path><path d="M138.87,324.51a.13.13,0,0,1,.17,0,.22.22,0,0,1,.07.19V326a.54.54,0,0,1-.07.27.46.46,0,0,1-.17.19l-1.58.92v6.15a.56.56,0,0,1-.08.27.42.42,0,0,1-.17.2l-1.18.68a.14.14,0,0,1-.17,0,.22.22,0,0,1-.07-.19v-6.15l-1.58.91a.15.15,0,0,1-.17,0,.23.23,0,0,1-.08-.19v-1.27a.56.56,0,0,1,.08-.27.42.42,0,0,1,.17-.2Z" style="fill:#fff"></path><path d="M140.06,327a5.66,5.66,0,0,1,.22-1.39,6.26,6.26,0,0,1,1.41-2.55,4.8,4.8,0,0,1,1.17-.93,2.68,2.68,0,0,1,1.18-.42,1.33,1.33,0,0,1,.86.19,1.51,1.51,0,0,1,.55.72,3.45,3.45,0,0,1,.22,1.14c0,.33,0,.69,0,1.06s0,.74,0,1.07a6.1,6.1,0,0,1-.22,1.39,6,6,0,0,1-.55,1.36,5.87,5.87,0,0,1-.86,1.2,5.63,5.63,0,0,1-1.18.93,3,3,0,0,1-1.17.42,1.27,1.27,0,0,1-.86-.2,1.47,1.47,0,0,1-.55-.72,3.21,3.21,0,0,1-.22-1.14c0-.32,0-.67,0-1S140.05,327.31,140.06,327Zm3.95-.21c0-.14,0-.31,0-.49s0-.36,0-.54,0-.36,0-.53,0-.32,0-.45a1.7,1.7,0,0,0-.1-.5.66.66,0,0,0-.21-.31.56.56,0,0,0-.35-.1,1.18,1.18,0,0,0-.49.18,2,2,0,0,0-.48.38,2.81,2.81,0,0,0-.35.5,2.69,2.69,0,0,0-.21.56,4.09,4.09,0,0,0-.1.61c0,.14,0,.3,0,.47v1.08c0,.17,0,.33,0,.46a1.18,1.18,0,0,0,.31.82c.19.16.46.13.83-.08a2,2,0,0,0,.83-.88A3.19,3.19,0,0,0,144,326.75Z" style="fill:#fff"></path><path d="M149.78,326.61a.15.15,0,0,1-.17,0,.23.23,0,0,1-.08-.19v-7.75a.56.56,0,0,1,.08-.27.42.42,0,0,1,.17-.2l2.9-1.67a2.33,2.33,0,0,1,1-.36.87.87,0,0,1,.66.19,1.13,1.13,0,0,1,.36.6,3.29,3.29,0,0,1,0,1.47,5,5,0,0,1-.14.53,2.4,2.4,0,0,1-.17.39,1.92,1.92,0,0,1-.14.26.75.75,0,0,1,.49.46,2.47,2.47,0,0,1,.14.95,5.18,5.18,0,0,1-.1,1,4.59,4.59,0,0,1-.36,1,4.23,4.23,0,0,1-.64,1,3.83,3.83,0,0,1-1,.78Zm3.36-7.79c0-.21,0-.35-.14-.42s-.22-.06-.41.05l-1.39.8v1.37l1.39-.8a1,1,0,0,0,.41-.43A1.12,1.12,0,0,0,153.14,318.82Zm-1.94,5.11,1.49-.85a1.27,1.27,0,0,0,.43-.46,1.43,1.43,0,0,0,.16-.62.52.52,0,0,0-.16-.43.39.39,0,0,0-.43,0l-1.49.86Z" style="fill:#fff"></path><path d="M159.6,312.55q.18-.1.27,0a.36.36,0,0,1,.13.19l2,6.42a.41.41,0,0,1,0,.16.43.43,0,0,1-.06.22.32.32,0,0,1-.14.16l-1.13.66c-.12.07-.21.08-.26,0a.22.22,0,0,1-.09-.14l-.25-.85-2.4,1.38-.25,1.14a.72.72,0,0,1-.1.26.66.66,0,0,1-.25.25l-1.14.65a.12.12,0,0,1-.14,0,.21.21,0,0,1,0-.15,1.06,1.06,0,0,1,0-.2l2-8.69a1.81,1.81,0,0,1,.13-.34.71.71,0,0,1,.28-.29Zm-1.46,6.08,1.46-.84-.73-2.46Z" style="fill:#fff"></path><path d="M165.61,310.88a1.74,1.74,0,0,0-.51.4,2.39,2.39,0,0,0-.34.51,2.11,2.11,0,0,0-.19.55,3.91,3.91,0,0,0-.1.58c0,.11,0,.26,0,.45v.57c0,.2,0,.39,0,.57s0,.33,0,.43a3.16,3.16,0,0,0,.09.48.77.77,0,0,0,.2.33.48.48,0,0,0,.34.1,1,1,0,0,0,.51-.18,2.24,2.24,0,0,0,.44-.32,1.92,1.92,0,0,0,.36-.44,2.13,2.13,0,0,0,.24-.55,2.29,2.29,0,0,0,.09-.66l-.75.44a.17.17,0,0,1-.17,0,.23.23,0,0,1-.08-.19v-1.27a.56.56,0,0,1,.08-.27.36.36,0,0,1,.17-.19l2.17-1.26a.15.15,0,0,1,.18,0,.23.23,0,0,1,.07.18v1.54a5.09,5.09,0,0,1-.22,1.5,6.12,6.12,0,0,1-.59,1.39,6.27,6.27,0,0,1-.89,1.16,4.9,4.9,0,0,1-1.1.86,2.71,2.71,0,0,1-1.16.41,1.32,1.32,0,0,1-.87-.2,1.42,1.42,0,0,1-.55-.72,3.38,3.38,0,0,1-.22-1.12c0-.32,0-.67,0-1s0-.74,0-1.09a5.35,5.35,0,0,1,.22-1.38,6.25,6.25,0,0,1,1.42-2.56,4.66,4.66,0,0,1,1.16-.92,2.74,2.74,0,0,1,1.13-.41,1.57,1.57,0,0,1,.86.13,1.28,1.28,0,0,1,.55.51,1.55,1.55,0,0,1,.21.73.37.37,0,0,1-.05.22.39.39,0,0,1-.15.16L167,311c-.09.05-.16.06-.21,0l-.15-.13a.67.67,0,0,0-.34-.19A1,1,0,0,0,165.61,310.88Z" style="fill:#fff"></path></g><path d="M192.05,250.36a2.34,2.34,0,0,0-2.11,0l-32.55,18.8a2.4,2.4,0,0,0-1.09,1.88v7.28a2,2,0,0,0,3.13,1.81L192,261.38a2.43,2.43,0,0,0,1.09-1.89v-7.28A2.34,2.34,0,0,0,192.05,250.36Z" style="fill:#263238"></path><path d="M193.06,252c-.09-.55-.54-.74-1.08-.43l-13.57,7.84-19,10.95a2.34,2.34,0,0,0-.77.82l-2-1.18a2.26,2.26,0,0,1,.77-.82l32.55-18.79a2,2,0,0,1,3.12,1.61Z" style="fill:#455a64"></path><path d="M158.34,272.26v7.28c0,.7.49,1,1.09.63L192,261.38a2.43,2.43,0,0,0,1.09-1.89v-7.28c0-.69-.49-1-1.09-.63l-32.55,18.8A2.4,2.4,0,0,0,158.34,272.26Z" style="fill:#37474f"></path><g id="freepik--stars--inject-41"><path d="M163.88,269.9l.53,1.13a.12.12,0,0,0,.17.07l1.19-.45c.19-.08.26.19.13.45l-.86,1.61a.52.52,0,0,0-.07.31l.2,1.46c0,.23-.16.54-.33.52l-1.06-.13a.28.28,0,0,0-.22.12l-1.06,1.36c-.17.22-.37.14-.34-.13l.21-1.7a.24.24,0,0,0-.07-.23l-.86-.62c-.14-.1-.06-.45.13-.6l1.19-.92a.5.5,0,0,0,.17-.26l.53-1.75C163.55,269.87,163.79,269.73,163.88,269.9Z" style="fill:#1E1E1E"></path><path d="M169.89,266.46l.54,1.13a.13.13,0,0,0,.17.07l1.19-.46c.19-.07.26.19.13.45l-.86,1.61a.54.54,0,0,0-.07.31l.2,1.47c0,.23-.16.53-.33.51l-1.06-.13a.26.26,0,0,0-.22.13l-1.06,1.35c-.17.22-.37.14-.34-.13l.21-1.69a.28.28,0,0,0-.07-.24l-.86-.62c-.14-.1-.06-.45.13-.59l1.19-.92a.57.57,0,0,0,.17-.27l.53-1.74C169.57,266.42,169.81,266.28,169.89,266.46Z" style="fill:#1E1E1E"></path><path d="M175.91,263l.54,1.13a.12.12,0,0,0,.17.07l1.19-.46c.19-.07.26.2.13.45l-.87,1.62a.59.59,0,0,0-.06.31l.2,1.46c0,.23-.16.54-.33.52l-1.07-.13a.25.25,0,0,0-.21.12l-1.06,1.36c-.17.21-.37.14-.34-.13l.21-1.7a.26.26,0,0,0-.07-.23l-.86-.62c-.14-.1-.06-.45.13-.6l1.19-.92A.57.57,0,0,0,175,265l.53-1.74C175.59,263,175.83,262.83,175.91,263Z" style="fill:#1E1E1E"></path><path d="M181.93,259.57l.53,1.13a.13.13,0,0,0,.18.06l1.19-.45c.19-.07.26.19.12.45l-.86,1.61a.51.51,0,0,0-.06.31l.2,1.46c0,.24-.16.54-.33.52l-1.07-.13a.27.27,0,0,0-.21.12L180.56,266c-.17.22-.37.14-.34-.13l.2-1.69a.25.25,0,0,0-.06-.24l-.86-.62c-.14-.1-.06-.45.13-.6l1.18-.91a.59.59,0,0,0,.18-.27l.53-1.74C181.6,259.53,181.85,259.39,181.93,259.57Z" style="fill:#1E1E1E"></path><path d="M188,256.12l.53,1.13a.14.14,0,0,0,.18.07l1.19-.46c.18-.07.26.2.12.45l-.86,1.62a.5.5,0,0,0-.06.31l.2,1.46c0,.23-.17.54-.33.51l-1.07-.13a.26.26,0,0,0-.21.13l-1.07,1.36c-.16.21-.36.14-.33-.13l.2-1.7a.23.23,0,0,0-.06-.23l-.86-.63c-.14-.09-.06-.45.12-.59l1.19-.92a.59.59,0,0,0,.18-.27l.53-1.74C187.62,256.08,187.87,255.94,188,256.12Z" style="fill:#1E1E1E"></path></g><g id="freepik--heart-box--inject-41"><path d="M191.34,287.9a4,4,0,0,0-3.57.07l-10.15,5.86a4.08,4.08,0,0,0-1.85,3.19v11.72a3.47,3.47,0,0,0,5.31,3.07L191.23,306a4.08,4.08,0,0,0,1.84-3.2V291A3.94,3.94,0,0,0,191.34,287.9Z" style="fill:#e0e0e0"></path><path d="M181.08,295.83,191.23,290c1-.59,1.84-.12,1.84,1.06v11.72a4.08,4.08,0,0,1-1.84,3.2l-10.15,5.86c-1,.59-1.85.11-1.85-1.07V299A4.05,4.05,0,0,1,181.08,295.83Z" style="fill:#fff"></path><path d="M193.05,290.73c-.13-1-.89-1.31-1.82-.77l-10.15,5.86a3.79,3.79,0,0,0-1.31,1.38l-3.46-2a3.76,3.76,0,0,1,1.31-1.37L187.77,288a4,4,0,0,1,3.57-.06A3.92,3.92,0,0,1,193.05,290.73Z" style="fill:#f0f0f0"></path></g><path d="M181.44,302.25a7.11,7.11,0,0,1,.59-2.75h0v0a4.73,4.73,0,0,1,1.75-2.25c1.2-.71,2.2.73,2.36,2.42.15-1.87,1.13-4.47,2.33-5.17a1.3,1.3,0,0,1,1.77.17h0a3.09,3.09,0,0,1,.61,2.06c0,2.86-1.71,5.46-3.15,8.19l-1.56,2.64-1.5-.84C183.19,305.68,181.46,305.12,181.44,302.25Z" style="fill:#1E1E1E"></path></g></g><g id="freepik--Character--inject-41"><g id="freepik--character--inject-41"><polygon points="280.82 207.46 282.41 224 297.2 223.08 296.02 204.74 280.82 207.46" style="fill:#ffa8a7"></polygon><path d="M262.35,175.54a11.76,11.76,0,0,1-.26-2.44,5.71,5.71,0,0,1,.62-2.82c1.22-2.14,3.57-2.14,5.71-2.11a33.68,33.68,0,0,0,12.47-2c1.64-.62,3.22-1.41,4.87-2,4.17-1.5,9-1.74,12.94.21a11.51,11.51,0,0,1,6,7.1c.4,1.46.23,2.94.51,4.41.35,1.8,1.11,3.49,1.44,5.3a41.76,41.76,0,0,1,.55,5.9c.32,8.17-18.64,13.48-18.27,19.08l-10.1-12.3c0-.51-1.43-1.78-1.75-2.21-.61-.81-1.15-1.68-1.7-2.53a13.8,13.8,0,0,0-4-3.92c-1.49-1-3.19-1.6-4.61-2.69A12.17,12.17,0,0,1,262.35,175.54Z" style="fill:#263238"></path><path d="M269.85,189.3s-3.27,4.87-2.84,5.38a7.77,7.77,0,0,0,2.51,1.07Z" style="fill:#f28f8f"></path><path d="M279.86,173.88c-3.18,1.62-8.68,4.61-10.1,16.13-1.45,11.84,1.23,16,2.87,17.5,1.11,1,6.82,1.42,9.81.51,3.73-1.13,11.81-5.06,15.6-11.17,4.46-7.18,5.38-16.76.23-20.51C291,171.06,282.56,172.52,279.86,173.88Z" style="fill:#ffa8a7"></path><path d="M272.94,207.72c1.34.74,5.14,1,8,.63l-.08-2.13a20.52,20.52,0,0,1-3.78,1.23A13.78,13.78,0,0,1,272.94,207.72Z" style="fill:#f28f8f"></path><path d="M278.46,173.53a12.59,12.59,0,0,0-3.7,2.14,5,5,0,0,0-1.31,1.68,3.89,3.89,0,0,0-.27,1.91,5.11,5.11,0,0,0,3,4.11,5,5,0,0,0-.8,4.12,9.86,9.86,0,0,0,2.91,4.2.64.64,0,0,0,.25.18.69.69,0,0,0,.52-.16c2-1.34,3.23-3.65,6.06-2.72,3.71,1.22,3.91,4.82,1.72,8a5,5,0,0,1-3.46,2.4,2.78,2.78,0,0,1-2.32-.66s.62,6.84,5.81,9.21c0,0,6.09,1.38,9.33-.73,1.95-2.48,5.24-5.66,7.94-8.5,8.9-9.36,9.41-22.95-3.72-27.24-.45-.15-.91-.29-1.37-.41a28.07,28.07,0,0,0-19,1.8C279.47,173.11,279,173.32,278.46,173.53Z" style="fill:#263238"></path><path d="M278,195.86a2.74,2.74,0,0,1-1.68-3.52,2.83,2.83,0,0,1,3.59-1.66Z" style="fill:#263238"></path><path d="M304.28,174.32a2.42,2.42,0,0,0,3.41-.48,2.49,2.49,0,0,0-.52-3.45Z" style="fill:#263238"></path><path d="M298.8,215.8c11.09.62,12.07,2.48,15.36,10.49S322.65,254.61,324,260c.61,2.4-17.6,25.16-16.94,24.84.2-.1-5.93-10.35-5.93-10.35l8.18-15.3-4.88-13Z" style="fill:#ffa8a7"></path><path d="M309.75,286.56a40.74,40.74,0,0,0-4.36-14.2L287.6,304.23l-3.11,11.26s.21,25.8.61,32,4.54,56.38,4.54,56.38l.75,9.91c7,1.95,8.49.1,8.56-1.43s.84-7.65.84-7.65,1.62-.61,2-3.23c.21-1.4-1.25-4.42-1-6.58,1.32-11.13,4.47-28.08,4.66-31.67a42.16,42.16,0,0,0-3.18-18.29C303.68,332,311.77,304,309.75,286.56Z" style="fill:#ffa8a7"></path><path d="M289.64,403.85l.75,9.91c7,1.95,8.49.1,8.56-1.43,0-.35.07-.95.14-1.66-1.13,2.54-3.45,1.8-4.78-1.82s-7.14-35.16-7.14-35.16C288.37,388.47,289.64,403.85,289.64,403.85Z" style="fill:#f28f8f"></path><path d="M285.52,427.2s1.07,1.87,6.85-.56,7.41-5.32,7.41-5.32-1.5-11.61-5.08-8.69S285.52,427.2,285.52,427.2Z" style="fill:#1E1E1E"></path><path d="M285.52,427.2s1.07,1.87,6.85-.56,7.41-5.32,7.41-5.32-1.5-11.61-5.08-8.69S285.52,427.2,285.52,427.2Z" style="opacity:0.30000000000000004"></path><path d="M301.12,398.55c-1.18-.63-4.32.67-6.17,2.27-2.43,2.09-3,4.92-4.26,8.25-1.33,3.55-3.74,8.43-5.69,9.52s-5.51.08-8.45.06-5.21,1.33-5.38,3.48c-.08,1.68,7.56,5.56,12.39,5.76,4,.16,5.37.84,7.58-5s3.06-9.16,4.82-5.18,2.49,13,2.49,13a2.84,2.84,0,0,0,3.56-1.49,58.86,58.86,0,0,1,.44-7.83c.5-3.6,2.42-9.27,2.17-13.61S302.29,399.13,301.12,398.55Z" style="fill:#263238"></path><path d="M303.33,273.68l-41.92,12.77s-4.2,45.63-4.09,59.53c.07,9.79.59,10.77,2.22,14.47,1.93,4.35,3.61,8.82,5.34,13.25,2.69,6.87,13.36,32.59,13,36.09-.22,2.42-2.85,9.08-4.19,13.38s-4.77,4.44-4.77,4.44,5.42,3.73,8.66,2.94c2.41-.58,3.14-3.63,4-5.6a12.56,12.56,0,0,1,5.9-6,24,24,0,0,0,3.09-1.84,5.55,5.55,0,0,0,2.07-2.87c.46-1.77-.33-3.59-1.1-5.25l-1.31-2.79a18.36,18.36,0,0,1-1.42-4.48c-.77-4.27-1.39-8.58-2.07-12.87-.79-5-1.58-10.1-2.45-15.13a67.61,67.61,0,0,0-2-9.78,58.85,58.85,0,0,0-5.86-11.77l11.18-47.93c13.5-4,17.91-9.78,19.47-18C308.35,279.48,305.85,277.8,303.33,273.68Z" style="fill:#ffa8a7"></path><path d="M261.17,365.38c-4.46-9.35-5.68-15-3.85-34.64s3.85-44.95,3.85-44.95L306,271.55c3.29,7.75,5.72,18.54,5.24,27.53s-7.55,45.16-7.55,45.16a106.29,106.29,0,0,1,2,10.71,59.82,59.82,0,0,1,.2,10.69c-.3,4.62-2.88,17.19-2.88,17.19a12.73,12.73,0,0,1-7.08,1.23,24.93,24.93,0,0,1-8.4-2.58s-1.23-15.79-1.72-19.34-1-9.79-1.27-14.42c-.34-6,0-28,0-28l-7.18,31.62,3.21,5.81c2.76,5.39,5.11,18.05,6,27.11,0,0-2,2.24-6.87,3.59a31.49,31.49,0,0,1-9.23.76S263.11,369.78,261.17,365.38Z" style="fill:#37474f"></path><path d="M284.49,319.69l3.43-14s11.74-1.5,17.92-9.7c0,0-4,11.06-15.12,11.85l-5.21,11.68-1.13,10.07Z" style="fill:#263238"></path><path d="M275.42,435.73s1.07,1.88,6.85-.55,7.41-5.32,7.41-5.32-1.5-11.61-5.08-8.69S275.42,435.73,275.42,435.73Z" style="fill:#1E1E1E"></path><path d="M275.42,435.73s1.07,1.88,6.85-.55,7.41-5.32,7.41-5.32-1.5-11.61-5.08-8.69S275.42,435.73,275.42,435.73Z" style="opacity:0.30000000000000004"></path><path d="M291,407.08c-1.18-.62-4.33.68-6.18,2.27-2.43,2.1-3,4.93-4.26,8.25-1.33,3.55-3.74,8.43-5.69,9.52s-5.51.08-8.45.07-5.21,1.33-5.38,3.47c-.08,1.69,7.56,5.57,12.39,5.76,4,.17,5.37.85,7.59-5s3.05-9.17,4.81-5.18,2.49,13,2.49,13a2.87,2.87,0,0,0,3.57-1.49,58,58,0,0,1,.43-7.83c.5-3.61,2.42-9.28,2.17-13.62S292.19,407.67,291,407.08Z" style="fill:#263238"></path><path d="M307.41,221.94c-1.17-4.22-2.8-6.14-8.06-6.11l-2.63-.16c-.32,2-11.16,2.62-15.14-.31-1.12-.05-5.11.22-7.4.44l-.69,1.82c-2,2.43-9.21,6.45-14.56,21.71a10.25,10.25,0,0,0,4.85,11.76c-.14,3.38.15,3.32,2.92,14.3l-5.42,17.45s10.17,6.17,26.83,4.88c14.9-1.15,21.93-9.51,21.36-8.42,0,0-2.57-4.81-7.37-15.95l1.1-4.91,1.74-7.52C309.1,234.94,309,227.56,307.41,221.94Z" style="fill:#455a64"></path><path d="M303.36,262.49c-3.52,5-25.34,10.56-36.8,3.05,0,0-18.2,26.15-21.13,49.62,0,0,14.45,17.58,47.81,13.47,24.34-3,32.62-18.17,32.62-18.17A102.14,102.14,0,0,0,315,279.69C311.91,274.11,304.88,267.66,303.36,262.49Z" style="fill:#1E1E1E"></path><path d="M303.36,262.49c-3.52,5-25.34,10.56-36.8,3.05,0,0-18.2,26.15-21.13,49.62,0,0,14.45,17.58,47.81,13.47,24.34-3,32.62-18.17,32.62-18.17A102.14,102.14,0,0,0,315,279.69C311.91,274.11,304.88,267.66,303.36,262.49Z" style="opacity:0.1"></path><path d="M309.48,325.63l-2.28-.52s-2.25-31-15-58.11l1.59-.39s9.42,17.06,14.3,33.57S309.48,325.63,309.48,325.63Z" style="fill:#1E1E1E"></path><path d="M309.48,325.63l-2.28-.52s-2.25-31-15-58.11l1.59-.39s9.42,17.06,14.3,33.57S309.48,325.63,309.48,325.63Z" style="opacity:0.2"></path><path d="M271.34,330.92l1.71-2.44s-.55-43.42,3.6-60.35l-1.1-.12S268.07,291.64,271.34,330.92Z" style="fill:#1E1E1E"></path><path d="M271.34,330.92l1.71-2.44s-.55-43.42,3.6-60.35l-1.1-.12S268.07,291.64,271.34,330.92Z" style="opacity:0.2"></path><path d="M271.29,328.18c0,1.75,0,2.74,0,2.74-17.21-2-20.44-8.14-20.44-8.14.15-.85.29-1.7.44-2.56,5.17-28.85,18.44-53.52,18.44-53.52a29.26,29.26,0,0,0,5.77,1.31h0C271.05,281.91,271.16,318,271.29,328.18Z" style="fill:#1E1E1E"></path><path d="M271.29,328.18c0,1.75,0,2.74,0,2.74-17.21-2-20.44-8.14-20.44-8.14.15-.85.29-1.7.44-2.56,5.17-28.85,18.44-53.52,18.44-53.52a29.26,29.26,0,0,0,5.77,1.31h0C271.05,281.91,271.16,318,271.29,328.18Z" style="fill:#1E1E1E;opacity:0.30000000000000004"></path><path d="M299.11,328.84c-9.86,4.48-20.34,2.35-20.34,2.35,0-.7-.06-1.4-.08-2.09-1-27.69,3-55,3.86-60.81a51.65,51.65,0,0,0,5.18-.46c8.08,21.62,10.8,53.25,11.3,59.8C299.08,328.42,299.11,328.84,299.11,328.84Z" style="fill:#1E1E1E"></path><path d="M323,316.81c-5.47,5.91-13.55,8.82-13.55,8.82,0-.49-.05-1-.07-1.47-1.48-24.74-14.08-54.07-15.6-57.55a37.3,37.3,0,0,0,4.86-1.63c14,11,22,41.6,23.9,49.79C322.87,316.08,323,316.81,323,316.81Z" style="fill:#1E1E1E"></path><path d="M265.48,260.64c.31,1.57.67,3.87,1,5,0,0,6.71,4,18.07,3.52s17.64-3.36,18.79-6.64l-.16-4.05C297.87,264.91,277.61,268,265.48,260.64Z" style="fill:#37474f"></path><path d="M232,240.49c-2.06-2.36-2.41-7.57-5.16-11.16s-2.25-7.2-4-5.59-.44,7.49-.44,7.49-3.2,5.94-3.47,9,7.78,10.68,7.78,10.68Z" style="fill:#ffa8a7"></path><path d="M222.89,230.82c-1.54,2.24-6.62-1.43-8-2.46a9.37,9.37,0,0,0-2.78-1.66,2.9,2.9,0,0,0-3,.63,3.58,3.58,0,0,0-.73,1.76,14.12,14.12,0,0,0,3,11.47c3.12,3.82,8.2,4.36,12.18,7.05a10.41,10.41,0,0,1-.09-2.58c-.07-1.91-.15-3.82-.23-5.73C223.13,236.47,223,233.64,222.89,230.82Z" style="fill:#ffa8a7"></path><path d="M274.18,215.8c-6.49-.45-12.46.51-16.62,8.91-4.75,9.57-14.16,28.09-14.16,28.09L232,240.49s-1.65-2.33-4.73,2.75-1.72,6.5-1.72,6.5,13.23,17.72,15.66,20,6.42.5,9-3,16.85-28.1,16.85-28.1S277.29,226.06,274.18,215.8Z" style="fill:#ffa8a7"></path><path d="M255.6,271.71l-3.28-1.89a32,32,0,0,0-.56-5.48c.65-1.06,1.44-2.38,2.29-3.85A41.25,41.25,0,0,1,255.6,271.71Z" style="fill:#263238"></path><path d="M255.73,272.76l-.13-1.05-.11.07,0-.07-3.27-1.89c-.43,1.22-.93,2.88-1.46,4.73C244,278.44,232.66,285,232.66,285l3.48,26.35,22.74-13.2h0a2,2,0,0,0,.94-1.18C260.78,294.19,256.79,277.17,255.73,272.76Z" style="fill:#37474f"></path><polygon points="255.6 271.71 232.66 284.95 229.38 283.06 252.32 269.82 255.6 271.71" style="fill:#455a64"></polygon><polygon points="255.6 271.71 232.66 284.95 229.38 283.06 252.32 269.82 255.6 271.71" style="fill:#fff;opacity:0.1"></polygon><path d="M234,290.63s-.14.61,2.09,1.09,11.49.36,12.72-.37,4.5-4.75,6-7.45a35.77,35.77,0,0,0,2.32-5.17Z" style="opacity:0.2"></path><path d="M229.38,283.06c-1.9,5.52-5.54,19.69-5,21.81s3.34,3.73,5,4.68,6.52,3.76,7.63.62S232.66,285,232.66,285Z" style="fill:#263238"></path><path d="M232.66,285c0,.33.49,4.36,1.34,5.68s12.1.54,14,0,8.84-10.37,9.08-11.9-1.51-7-1.51-7Z" style="fill:#455a64"></path><path d="M247.6,288.59c.05.49.42.65.82.35a1.71,1.71,0,0,0,.62-1.42c-.06-.49-.42-.65-.82-.35A1.68,1.68,0,0,0,247.6,288.59Z" style="fill:#1E1E1E"></path><path d="M244.51,250.61c-12,2.08-15.13,32.45-15.13,32.45l3.28,1.89c.59-17.95,8.15-30.59,10.81-32.16Z" style="fill:#263238"></path></g></g></svg>